<svg width="65" height="66" viewBox="0 0 65 66" fill="none" xmlns="http://www.w3.org/2000/svg">
<path d="M35.2084 34.375C35.2084 32.4748 35.964 30.7615 37.1909 29.513C38.4177 28.2645 40.1077 27.5 41.9792 27.5C43.8507 27.5 45.538 28.2673 46.7675 29.513C47.9971 30.7588 48.75 32.4748 48.75 34.375C48.75 36.2752 47.9944 37.9885 46.7675 39.237C45.5407 40.4855 43.8507 41.25 41.9792 41.25C40.1077 41.25 38.4205 40.4827 37.1909 39.237C35.9613 37.9912 35.2084 36.2752 35.2084 34.375ZM23.0209 22C21.1494 22 19.4621 21.2327 18.2325 19.987C17.003 18.7413 16.25 17.0252 16.25 15.125C16.25 13.2248 17.0057 11.5115 18.2325 10.263C19.4594 9.0145 21.1494 8.25 23.0209 8.25H29.7917V22H23.0209ZM35.2084 22V8.25H41.9792C43.8507 8.25 45.538 9.01725 46.7675 10.263C47.9971 11.5087 48.75 13.2248 48.75 15.125C48.75 17.0252 47.9944 18.7385 46.7675 19.987C45.5407 21.2355 43.8507 22 41.9792 22H35.2084ZM29.7917 46.75V53.625C29.7917 55.5252 29.0361 57.2385 27.8092 58.487C26.5823 59.7355 24.8923 60.5 23.0209 60.5C21.1494 60.5 19.4621 59.7327 18.2325 58.487C17.003 57.2412 16.25 55.5252 16.25 53.625C16.25 51.7248 17.0057 50.0115 18.2325 48.763C19.4594 47.5145 21.1494 46.75 23.0209 46.75H29.7917ZM10.8334 34.375C10.8334 37.7905 12.2011 40.8898 14.403 43.1255C14.7063 43.4335 15.0259 43.725 15.359 44C15.0259 44.275 14.7063 44.5665 14.403 44.8745C12.2011 47.1103 10.8334 50.2095 10.8334 53.625C10.8334 57.0405 12.2011 60.1397 14.403 62.3755C16.6048 64.6112 19.6571 66 23.0209 66C26.3846 66 29.4369 64.6112 31.6388 62.3755C33.8407 60.1397 35.2084 57.0405 35.2084 53.625V44.6655C37.1448 45.98 39.474 46.75 41.9792 46.75C45.343 46.75 48.3952 45.3613 50.5971 43.1255C52.799 40.8898 54.1667 37.7905 54.1667 34.375C54.1667 30.9595 52.799 27.8603 50.5971 25.6245C50.2938 25.3165 49.9742 25.025 49.6411 24.75C49.9742 24.475 50.2938 24.1835 50.5971 23.8755C52.799 21.6397 54.1667 18.5405 54.1667 15.125C54.1667 11.7095 52.799 8.61025 50.5971 6.3745C48.3952 4.13875 45.343 2.75 41.9792 2.75H23.0209C19.6571 2.75 16.6048 4.13875 14.403 6.3745C12.2011 8.61025 10.8334 11.7095 10.8334 15.125C10.8334 18.5405 12.2011 21.6397 14.403 23.8755C14.7063 24.1835 15.0259 24.475 15.359 24.75C15.0259 25.025 14.7063 25.3165 14.403 25.6245C12.2011 27.8603 10.8334 30.9595 10.8334 34.375ZM16.25 34.375C16.25 32.4748 17.0057 30.7615 18.2325 29.513C19.4594 28.2645 21.1494 27.5 23.0209 27.5H29.7917V41.25H23.0209C21.1494 41.25 19.4621 40.4827 18.2325 39.237C17.003 37.9912 16.25 36.2752 16.25 34.375Z" fill="black"/>
</svg>
