<svg width="60" height="66" viewBox="0 0 60 66" fill="none" xmlns="http://www.w3.org/2000/svg">
<path d="M29.9938 66C29.111 66 28.2303 65.769 27.4589 65.3214L19.3843 60.5447C18.1798 59.8703 18.7676 59.631 19.1636 59.4907C20.7723 58.9318 21.0961 58.8039 22.8163 57.8304C22.9957 57.7294 23.2308 57.7665 23.4164 57.8779L29.6204 61.5594C29.8453 61.6832 30.1629 61.6832 30.3691 61.5594L54.5561 47.6004C54.7809 47.4705 54.9253 47.2127 54.9253 46.9466V19.0348C54.9253 18.7626 54.7788 18.5068 54.5478 18.3686L30.3733 4.41994C30.1505 4.29 29.8535 4.29 29.6287 4.41994L5.45826 18.3707C5.22519 18.5048 5.07669 18.7688 5.07669 19.0328V46.9446C5.07669 47.2106 5.22519 47.4643 5.45826 47.5901L12.083 51.4181C15.6779 53.2166 17.8807 51.0984 17.8807 48.9699V21.4129C17.8807 21.0231 18.1942 20.7178 18.584 20.7178H21.6509C22.0325 20.7178 22.3522 21.0251 22.3522 21.4129V48.9699C22.3522 53.7694 19.739 56.5187 15.1912 56.5187C13.7949 56.5187 12.6914 56.5187 9.62038 55.0028L3.27407 51.3542C1.70657 50.4488 0.739258 48.7554 0.739258 46.9425V19.0307C0.739258 17.2178 1.7107 15.5244 3.27407 14.6231L27.461 0.647628C28.9934 -0.218622 31.025 -0.218622 32.543 0.647628L56.7258 14.6231C58.2933 15.5286 59.2668 17.2198 59.2668 19.0307V46.9425C59.2668 48.7554 58.2933 50.4426 56.7258 51.3542L32.543 65.3194C31.7737 65.7669 30.8951 65.9979 29.9999 65.9979L29.9938 66ZM49.5215 38.4801C49.5215 33.2557 45.9905 31.8636 38.5573 30.8818C31.0477 29.8898 30.2825 29.3741 30.2825 27.6169C30.2825 26.1649 30.9281 24.2261 36.4927 24.2261C41.4613 24.2261 43.2928 25.2966 44.0476 28.6461C44.1136 28.9616 44.4024 29.1926 44.7262 29.1926H47.8633C48.0592 29.1926 48.2428 29.1081 48.3748 28.9699C48.5068 28.8214 48.5789 28.6316 48.5583 28.4316C48.0716 22.6628 44.2374 19.9733 36.4906 19.9733C29.5936 19.9733 25.4789 22.8834 25.4789 27.7633C25.4789 33.0578 29.5709 34.5201 36.1895 35.1739C44.1095 35.9494 44.7221 37.1064 44.7221 38.6636C44.7221 41.3676 42.5523 42.5184 37.4559 42.5184C31.0559 42.5184 29.6493 40.9118 29.1749 37.7272C29.1193 37.3869 28.8284 37.1353 28.4799 37.1353H25.3531C24.9654 37.1353 24.6539 37.4426 24.6539 37.8304C24.6539 41.9059 26.8711 46.7631 37.4559 46.7631C45.1222 46.7651 49.5174 43.7498 49.5174 38.478L49.5215 38.4801Z" fill="#0E0A0A"/>
</svg>
