<svg width="66" height="60" viewBox="0 0 66 60" fill="none" xmlns="http://www.w3.org/2000/svg">
<path d="M33 24.1178C31.4399 24.1178 29.9438 24.7375 28.8406 25.8406C27.7375 26.9438 27.1178 28.4399 27.1178 30C27.1178 31.5601 27.7375 33.0562 28.8406 34.1594C29.9438 35.2625 31.4399 35.8823 33 35.8823C34.5601 35.8823 36.0563 35.2625 37.1594 34.1594C38.2625 33.0562 38.8823 31.5601 38.8823 30C38.8823 28.4399 38.2625 26.9438 37.1594 25.8406C36.0563 24.7375 34.5601 24.1178 33 24.1178ZM16.5227 41.7006L15.2254 41.3706C5.5502 38.9265 0.0020752 34.7768 0.0020752 29.9876C0.0020752 25.1985 5.55226 21.0508 15.2254 18.6047L16.5227 18.2768L16.8878 19.5638C17.8996 23.0771 19.2099 26.4975 20.8044 29.7876L20.6353 29.4039L20.9138 29.9897L20.6353 30.5754C19.1663 33.5981 17.9515 36.7377 17.0033 39.9619L16.8878 40.4156L16.5227 41.7006ZM14.6211 21.6118C7.26826 23.6764 2.75551 26.8361 2.75551 29.9876C2.75551 33.1371 7.26826 36.2968 14.6211 38.3634C15.5564 35.356 16.7019 32.4179 18.0489 29.571L17.8716 29.9876C16.6558 27.4292 15.6146 24.7914 14.7551 22.0924L14.6211 21.6118ZM49.4773 41.7006L49.1123 40.4115C48.1025 36.8992 46.7914 33.4806 45.1935 30.1939L45.3606 30.5734L45.0821 29.9876L45.3606 29.4019C46.8294 26.3796 48.0449 23.2407 48.9947 20.0175L49.1102 19.5617L49.4753 18.2747L50.7767 18.6026C60.4478 21.0467 65.9979 25.1964 65.9979 29.9876C65.9979 34.7788 60.4478 38.9244 50.7767 41.3706L49.4773 41.7006ZM48.1284 29.9897C49.395 32.7071 50.4809 35.5051 51.3789 38.3655C58.7359 36.2968 63.2445 33.1371 63.2445 29.9897C63.2445 26.8382 58.7318 23.6805 51.3789 21.6139C50.4447 24.6211 49.2992 27.5585 47.9511 30.4043L48.1284 29.9918V29.9897ZM14.6025 21.5994L14.2374 20.3145C11.517 10.728 12.342 3.85781 16.5 1.46119C20.5776 -0.892123 27.126 1.88813 33.9879 8.9295L34.9223 9.88857L33.9879 10.8476C31.6082 13.3207 29.4276 15.9779 27.4663 18.7944L27.3261 19.0069L26.9548 19.5369L26.3093 19.5926C22.6468 19.8775 19.0149 20.4709 15.4523 21.3664L15.9019 21.2694L14.6025 21.5994ZM19.8165 3.36694C19.0802 3.36694 18.4284 3.52575 17.8778 3.84338C15.1449 5.41913 14.6603 10.8971 16.5433 18.2891C19.383 17.6421 22.2634 17.1887 25.1646 16.932L25.4348 16.9114C27.1728 14.4419 29.0716 12.0897 31.119 9.87L31.0778 9.91538C26.7878 5.73881 22.7267 3.36694 19.8165 3.36694ZM46.1856 59.3618C46.1835 59.3618 46.1835 59.3618 46.1856 59.3618C42.2668 59.3618 37.2343 56.4103 32.0121 51.0478L31.0778 50.0888L32.0121 49.1297C34.3916 46.6568 36.5709 43.9988 38.5296 41.1808L38.6698 40.9684L39.0411 40.4383L39.6846 40.3826C43.3489 40.0987 46.9828 39.5068 50.5478 38.613L50.0981 38.7079L51.3954 38.3799L51.7646 39.6669C54.4789 49.2473 53.6559 56.1195 49.4979 58.5161C48.5167 59.0755 47.4058 59.3678 46.2763 59.3638H46.1794H46.1835L46.1856 59.3618ZM34.9223 50.064C39.2123 54.2406 43.2733 56.6124 46.1835 56.6124C46.9178 56.6124 47.5736 56.4536 48.1223 56.136C50.8551 54.5603 51.3418 49.0802 49.4567 41.6882C46.6159 42.337 43.7341 42.7904 40.8313 43.0453L40.5632 43.0659C38.8265 45.5371 36.9283 47.8908 34.881 50.1114L34.9223 50.064ZM51.3975 21.5994L50.1002 21.2715C47.1034 20.496 43.5518 19.902 39.9135 19.6091L39.6846 19.5947L39.0411 19.539L38.6698 19.0089C36.6695 16.1061 34.4367 13.3705 31.9935 10.8291L32.0121 10.8497L31.0778 9.89063L32.0121 8.93156C38.8699 1.89225 45.4163 -0.887998 49.5 1.46325C53.658 3.86194 54.483 10.7301 51.7667 20.3145L51.3975 21.5994ZM40.5632 16.9093C43.7044 17.196 46.6868 17.6601 49.4567 18.2871C51.3439 10.8951 50.8571 5.41706 48.1223 3.84131C45.4059 2.27175 40.2992 4.67663 34.9223 9.91332C36.8968 12.0559 38.7334 14.3216 40.4209 16.6969L40.5632 16.9093ZM19.8165 59.3618H19.7216C18.5804 59.3641 17.4587 59.066 16.4691 58.4976L16.5 58.5141C12.342 56.1195 11.517 49.2493 14.2374 39.6649L14.6004 38.3779L15.8978 38.7058C19.074 39.5061 22.5782 40.0691 26.3072 40.3806L26.9528 40.4363L27.3219 40.9663C29.3231 43.8703 31.5573 46.6067 34.0024 49.1483L33.9818 49.1276L34.9161 50.0867L33.9818 51.0458C28.7616 56.4083 23.7291 59.3618 19.8165 59.3618ZM16.5433 41.6882C14.6561 49.0802 15.1429 54.5603 17.8778 56.136C20.592 57.6849 25.6967 55.2966 31.0778 50.064C29.1031 47.9203 27.2659 45.6539 25.5771 43.2784L25.4348 43.0659C22.2876 42.7927 19.1631 42.3027 16.0834 41.5995L16.5454 41.6882H16.5433ZM33 43.4145C30.7374 43.4145 28.4109 43.3155 26.0803 43.1237L25.4348 43.068L25.0635 42.5379C23.823 40.7722 22.6553 38.9564 21.5634 37.095L21.351 36.7031C20.2743 34.8711 19.2766 32.9939 18.3604 31.0766L18.1438 30.5754L17.8695 29.9897L18.1438 29.4039C19.1824 27.1791 20.3235 25.0036 21.5634 22.8844L21.351 23.2783C22.5072 21.2828 23.7458 19.3362 25.0635 17.4435L25.4348 16.9114L26.0803 16.8578C30.7886 16.4624 35.5221 16.47 40.2291 16.8804L39.9197 16.8578L40.5632 16.9134L40.9324 17.4435C43.4797 21.075 45.7231 24.9106 47.6396 28.911L47.8541 29.406L48.1326 29.9918L47.8541 30.5775C45.8498 34.8495 43.4765 38.9384 40.7612 42.7978L40.9324 42.54L40.5632 43.0701L39.9197 43.1258C37.6174 43.317 35.3082 43.414 32.9979 43.4166L33 43.4145ZM26.9589 40.4342C31.0283 40.7394 34.9718 40.7394 39.0452 40.4342C41.2343 37.2592 43.1832 33.9252 44.8759 30.4599L45.0842 29.9897C43.2997 26.2629 41.2224 22.6836 38.8719 19.2853L39.0431 19.5452C34.9292 19.2362 30.7977 19.2417 26.6846 19.5617L26.961 19.5452C24.7654 22.7201 22.8141 26.0572 21.1241 29.5277L20.9199 29.9897C22.7101 33.7163 24.7885 37.2973 27.1363 40.7003L26.961 40.4321L26.9589 40.4342Z" fill="#0E0A0A"/>
</svg>
