<svg width="62" height="66" viewBox="0 0 62 66" fill="none" xmlns="http://www.w3.org/2000/svg">
<path d="M44.0302 0C41.44 0.0206239 38.9465 0.424853 36.5893 1.15906L36.7788 1.10957L36.613 1.16525C35.1353 0.888194 33.6385 0.736457 32.1374 0.711525H32.1117C29.0102 0.655841 26.3469 1.44367 24.199 2.75123C22.0826 1.98402 17.6919 0.662028 13.0643 0.926014C9.84232 1.10957 6.3262 2.13251 3.72021 5.00749C1.12211 7.8804 -0.251961 12.3269 0.0382519 18.378C0.117221 20.0465 0.57327 22.7688 1.32743 26.2955C2.08159 29.8222 3.14373 33.949 4.46844 37.7129C5.79316 41.4809 7.24225 44.8632 9.50867 47.1607C10.6399 48.3136 12.1996 49.2809 14.0356 49.2004C15.3248 49.1447 16.4916 48.5549 17.4964 47.6825C17.9861 48.3569 18.5092 48.6498 18.987 48.922C19.5872 49.2664 20.1715 49.4995 20.7776 49.6542C21.8654 49.9367 23.7252 50.3162 25.9047 49.9284C26.6993 49.782 27.4732 49.5326 28.2087 49.186C28.2383 50.0934 28.2718 50.9823 28.3054 51.8815C28.414 54.7297 28.4811 57.3613 29.3004 59.6691C29.4327 60.0466 29.792 61.9873 31.2134 63.7011C32.6349 65.417 35.4205 66.4874 38.5912 65.7779C40.828 65.2768 43.6748 64.3755 45.5642 61.5645C47.4338 58.7864 48.2748 54.8019 48.4406 48.3404C48.4821 47.9919 48.5334 47.6949 48.5848 47.4165L49.029 47.4577H49.0823C51.4691 47.5711 54.0593 47.2164 56.2231 46.1646C58.1401 45.2386 59.5892 44.3002 60.6454 42.6358C60.908 42.2234 61.1982 41.7263 61.2771 40.8684C61.3561 40.0104 60.8843 38.6678 60.1025 38.0491C58.5369 36.8054 57.5518 37.2798 56.4955 37.5067C55.5558 37.7335 54.468 37.8779 53.3525 37.9068H53.3328C56.3751 32.5528 58.5586 26.8668 59.8024 21.8345C60.5388 18.8647 60.9534 16.1258 60.9869 13.7314C61.0205 11.337 60.8349 9.21683 59.4608 7.3813C55.1669 1.64991 49.1316 0.0659966 44.4626 0.0123744C44.3178 0.00996774 44.173 0.00653034 44.0282 0.00206239L44.0302 0ZM43.9078 1.75922C48.3242 1.71591 53.9685 3.01109 58.0196 8.41868C58.9298 9.63343 59.2022 11.4112 59.1706 13.5994C59.1371 15.7855 58.7501 18.4027 58.0414 21.2715C56.6673 26.8255 54.0712 33.3014 50.4149 39.1133C50.5353 39.204 50.6715 39.2824 50.8176 39.3443L50.8314 39.3484C51.5955 39.6784 53.3348 39.9609 56.8075 39.2164C57.6821 39.0246 58.3217 38.8947 58.9851 39.4226C59.2812 39.6866 59.4687 40.0764 59.4687 40.5136L59.4668 40.5961V40.592C59.432 40.9284 59.3128 41.2493 59.1213 41.5221L59.1252 41.516C58.454 42.5698 57.1293 43.568 55.4314 44.3889C53.929 45.121 51.7732 45.5026 49.8621 45.5252C48.9046 45.5356 48.0201 45.4592 47.2699 45.2138L47.2225 45.1953C46.9323 48.1094 46.267 53.8656 45.8327 56.491C45.4852 58.6091 44.8771 60.292 43.7163 61.55C42.5574 62.8102 40.9188 63.5691 38.7116 64.0641C35.9793 64.6766 33.9872 64.0167 32.702 62.8865C31.4207 61.7583 30.8324 60.2631 30.481 59.3474C30.2382 58.7142 30.1118 57.8955 29.9914 56.8003C29.871 55.7052 29.7801 54.3667 29.7209 52.8571C29.6374 50.5139 29.6117 48.1688 29.6439 45.8243V45.9192C28.5156 47.0011 27.1148 47.7238 25.6066 48.0022L25.5592 48.0104C23.7449 48.3322 22.126 48.0166 21.1606 47.7629C20.6729 47.6359 20.2025 47.4446 19.7609 47.1937L19.7925 47.2102C19.3443 46.9607 18.9179 46.6761 18.6336 46.1192C18.4642 45.7966 18.4117 45.421 18.4855 45.0612L18.4836 45.0715C18.5724 44.7114 18.7731 44.3923 19.0541 44.1641L19.0581 44.162C19.5793 43.7186 20.2683 43.4711 21.3087 43.2463C23.202 42.84 23.8614 42.5616 24.2641 42.2295C24.6057 41.9429 24.9926 41.3654 25.6777 40.5198L25.6698 40.4146V40.4064C24.429 40.3722 23.2143 40.027 22.128 39.3999L22.1675 39.4206C21.7726 39.8557 19.7569 42.0831 17.297 45.1726C16.2625 46.4657 15.1195 47.2082 13.9152 47.2597C12.7089 47.3154 11.6191 46.6802 10.6932 45.7418C8.84335 43.863 7.36662 40.6333 6.07942 36.9808C4.79419 33.3283 3.74982 29.2612 3.00751 25.7964C2.26322 22.3316 1.82296 19.537 1.75979 18.1903C1.48339 12.4651 2.76467 8.60636 4.96398 6.17274C7.16525 3.73912 10.1819 2.81723 13.1215 2.64192C18.3987 2.32638 23.4113 4.24853 24.424 4.66101C26.3766 3.27508 28.8937 2.41094 32.0367 2.46662C33.5752 2.48873 35.1059 2.69985 36.5972 3.09565L36.4629 3.06471L36.5162 3.03997C37.0236 2.84404 37.6751 2.63986 38.3385 2.47693L38.4609 2.45218C40.2428 2.00993 42.0665 1.77681 43.8979 1.75716H43.9157L43.9078 1.75922ZM44.3066 3.603H43.9216C42.3618 3.62483 40.808 3.81139 39.2841 4.15984L39.4361 4.13097C42.7154 5.64889 45.193 7.98558 46.9382 10.3181C48.1224 11.8876 49.1054 13.6119 49.8621 15.4473L49.9174 15.5979C50.2076 16.3238 50.4011 16.9364 50.5116 17.4128C50.5669 17.652 50.6044 17.8521 50.6163 18.0624C50.6267 18.1953 50.616 18.3291 50.5847 18.4584C50.5847 18.4667 50.5709 18.4852 50.5689 18.4935C50.6478 20.9023 50.0773 22.5358 50.0082 24.8353C49.9549 26.5017 50.3636 28.459 50.4642 30.5956C50.559 32.6023 50.328 34.8091 49.0803 36.9725C49.1849 37.1045 49.2797 37.2365 49.3804 37.3685C52.6813 31.9382 55.0603 25.9284 56.3297 20.8054C57.0088 18.048 57.3701 15.5484 57.4017 13.5685C57.4274 11.5886 57.076 10.1532 56.6258 9.553C53.0939 4.83425 48.3123 3.63187 44.3066 3.603ZM31.6991 4.30627C28.5877 4.31452 26.3548 5.29622 24.6629 6.76671C22.9177 8.28669 21.747 10.3697 20.977 12.5002C20.0629 15.0307 19.751 17.4767 19.6266 19.139L19.6602 19.1163C20.7575 18.4772 21.9341 17.9997 23.1566 17.6974C24.4773 17.3818 25.9027 17.2828 27.1919 17.8046C28.4811 18.3264 29.5472 19.5556 29.9341 21.42C31.7879 30.377 29.3577 33.7057 28.4633 36.2197C28.179 36.9436 27.8809 37.8717 27.6341 38.8204L27.5927 39.006C27.7052 38.9792 27.8197 38.9462 27.9323 38.9338C28.564 38.8782 29.0596 39.0988 29.3537 39.2308C30.254 39.6206 30.8719 40.4414 31.2075 41.3757C31.2944 41.6211 31.3576 41.8851 31.3951 42.1574C31.4305 42.2584 31.4485 42.3653 31.4484 42.4729V42.508C31.3473 46.028 31.3618 49.5485 31.4918 53.0674L31.4839 52.7828C31.5451 54.2615 31.634 55.565 31.7465 56.5941C31.859 57.6191 32.0209 58.4008 32.1236 58.6647C32.4612 59.5454 32.9527 60.6962 33.8431 61.4799C34.7335 62.2616 36.0089 62.7833 38.3424 62.2616C40.364 61.8078 41.6118 61.1788 42.4469 60.2734C43.278 59.368 43.7755 58.11 44.0953 56.1816C44.5711 53.2943 45.5306 44.921 45.6451 43.3453C45.5918 42.1574 45.7616 41.2437 46.1249 40.5487C46.498 39.833 47.0784 39.3958 47.5779 39.1607C47.8286 39.0432 48.0616 38.9627 48.2551 38.905C48.0446 38.5888 47.8234 38.2806 47.5917 37.981L47.6154 38.012C46.9101 37.1214 46.3298 36.1304 45.8919 35.0689L45.8623 34.9885C45.5938 34.4131 45.3687 33.9779 45.1298 33.551L45.1851 33.6582C44.8357 32.9983 44.3935 32.1733 43.9295 31.2473C43.0036 29.3912 41.9948 27.1411 41.4716 24.9508C40.9504 22.7626 40.8734 20.4961 42.2119 18.8977C43.3965 17.4788 45.4753 16.891 48.5986 17.221C48.5058 16.9322 48.4505 16.693 48.2965 16.3073C47.5837 14.5541 46.651 12.9076 45.5227 11.4112L45.5563 11.4566C42.9108 7.92371 38.6287 4.41971 32.011 4.30627H31.6991ZM14.2153 4.44858C13.8816 4.44858 13.546 4.45889 13.2143 4.47952C10.555 4.63832 8.04181 5.44472 6.24328 7.43492C4.44278 9.42513 3.25823 12.6899 3.51686 18.0934C3.56621 19.1163 3.99265 21.981 4.72509 25.386C5.45359 28.791 6.48809 32.7962 7.73186 36.3352C8.9776 39.8743 10.4859 42.9534 11.9172 44.4116C12.6378 45.1396 13.2656 45.4345 13.8342 45.4098C14.4048 45.3829 15.0918 45.0385 15.9328 43.9846C17.4802 42.0349 19.0867 40.1372 20.75 38.2945L20.6987 38.3523C19.524 37.2887 18.6266 35.9314 18.0904 34.4072C17.5542 32.883 17.3967 31.2416 17.6327 29.6366L17.6267 29.6902C17.8972 27.6587 17.9347 25.7572 17.9031 24.2558C17.8715 22.7936 17.7709 21.8201 17.7709 21.2117V21.1581V21.1601V21.1457L17.7689 21.1292V21.1127C17.7689 17.7861 18.3394 14.5997 19.3858 11.6546L19.3266 11.8423C20.063 9.79636 21.1606 7.71747 22.8071 6.03456C21.1902 5.47978 18.3217 4.63213 15.2162 4.47333C14.8841 4.45539 14.5517 4.44645 14.2192 4.44652L14.2153 4.44858ZM46.8494 18.974C45.0627 18.9988 44.0598 19.4793 43.5327 20.1104C42.7884 21.0034 42.7173 22.5708 43.1793 24.5012C43.6393 26.4337 44.5929 28.5951 45.4872 30.3914C45.9353 31.2906 46.3697 32.0991 46.7191 32.757C47.0725 33.4169 47.3291 33.8851 47.4871 34.2831C47.6312 34.6523 47.7931 34.9761 47.955 35.2793C48.6479 33.7531 48.7703 32.2538 48.6993 30.6925C48.6065 28.7601 48.1781 26.7822 48.2412 24.7796C48.3123 22.4388 48.7546 20.9168 48.794 19.106C48.1486 19.0175 47.5003 18.9734 46.8494 18.974ZM25.1762 19.2896C24.6129 19.2951 24.0519 19.367 23.504 19.504L23.5554 19.4937C22.4724 19.7672 21.4302 20.1939 20.4578 20.7621L20.519 20.7291C20.1696 20.9271 19.8675 21.1354 19.5872 21.3664L19.601 21.3561L19.5437 21.4118C19.5595 21.8139 19.6365 22.7874 19.6681 24.2187C19.6997 25.7861 19.6622 27.7845 19.3739 29.9501C18.7442 34.6523 22.0115 38.5461 25.8494 38.5523C26.0725 37.5871 26.4417 36.6075 26.8109 35.5763C27.879 32.5672 29.9835 30.3728 28.2106 21.8098C27.9204 20.4074 27.3479 19.8402 26.5582 19.5226C26.1432 19.3681 25.7056 19.2899 25.2651 19.2916L25.1743 19.2937H25.1782L25.1762 19.2896ZM46.0163 19.8505H46.1486C46.3223 19.8567 46.4822 19.8753 46.6224 19.9103C46.7645 19.9433 46.8849 19.9928 46.9856 20.0609C47.0863 20.1289 47.1594 20.2341 47.1831 20.3599V20.362L47.1811 20.3847V20.4115C47.1818 20.5341 47.1489 20.6543 47.0863 20.758L47.0883 20.7559C47.0108 20.9071 46.9131 21.046 46.7981 21.1684C46.5336 21.4727 46.1804 21.6771 45.7932 21.75L45.7833 21.7521C45.4005 21.8003 45.0142 21.6981 44.6995 21.4654L44.7034 21.4695C44.5763 21.3794 44.462 21.2711 44.3638 21.1478L44.3619 21.1457C44.2776 21.0488 44.2203 20.9297 44.196 20.8013V20.7972L44.1941 20.7559C44.1941 20.6363 44.2375 20.5291 44.3066 20.4466C44.3917 20.3458 44.4942 20.2625 44.6086 20.2011L44.6146 20.1991C45.0474 19.9648 45.5289 19.8458 46.0163 19.8526V19.8505ZM25.4309 20.3125C25.5711 20.3125 25.7172 20.3269 25.8672 20.3476C26.27 20.4053 26.6273 20.5187 26.9017 20.6837C27.0345 20.7572 27.153 20.8558 27.2511 20.9745L27.2531 20.9766C27.3069 21.0403 27.3474 21.115 27.3718 21.196C27.3963 21.277 27.4043 21.3624 27.3953 21.4468V21.4448C27.3697 21.6032 27.3012 21.7506 27.1978 21.8696C27.0918 22.006 26.9667 22.1249 26.8267 22.2223L26.8208 22.2264C26.4769 22.4825 26.053 22.593 25.6342 22.5358H25.6421C25.2177 22.4624 24.829 22.2424 24.5385 21.9109L24.5366 21.9088C24.4153 21.7774 24.3123 21.6288 24.2306 21.4674L24.2266 21.4571C24.1523 21.3351 24.1133 21.1934 24.1141 21.0488L24.118 20.9663V20.9704C24.1575 20.6734 24.3924 20.5187 24.6215 20.4342C24.8836 20.3408 25.1601 20.2995 25.4368 20.3125H25.4309ZM49.2797 40.5054L49.2718 40.5074C48.8849 40.6539 48.567 40.7137 48.2985 40.8374C48.03 40.9468 47.8079 41.1532 47.6727 41.419L47.6687 41.4252C47.5029 41.7408 47.3607 42.3017 47.4022 43.2566C47.519 43.3402 47.6475 43.4042 47.7832 43.4464L47.7931 43.4484C48.2432 43.5907 48.9994 43.6856 49.8404 43.6712C51.5205 43.6526 53.5855 43.2422 54.6832 42.708C55.6328 42.2419 56.4501 41.6768 57.1766 41.0065L57.1648 41.0169C53.4986 41.8088 51.4237 41.5964 50.1523 41.0499C49.8343 40.912 49.5376 40.7257 49.2718 40.4971L49.2777 40.5013L49.2797 40.5054ZM28.1396 40.7632H28.0843C27.9441 40.7776 27.7427 40.8271 27.3499 41.2808C26.4338 42.3533 26.112 43.0277 25.3579 43.6567C24.6017 44.2837 23.6205 44.6199 21.6601 45.0406C21.2411 45.1189 20.8332 45.2519 20.446 45.4366C20.5229 45.5026 20.515 45.5191 20.6296 45.583C20.9158 45.748 21.285 45.8944 21.5831 45.9728C22.4261 46.1935 23.8101 46.4492 25.2552 46.1935C26.7003 45.9357 28.2027 45.2118 29.486 43.3329C29.7071 43.0091 29.7308 42.5307 29.5492 42.0151C29.3656 41.5015 28.9628 41.0581 28.6785 40.9344C28.5124 40.8477 28.3336 40.7906 28.1494 40.7652H28.1396V40.7632Z" fill="black"/>
</svg>
