<svg width="115" height="69" viewBox="0 0 115 69" fill="none" xmlns="http://www.w3.org/2000/svg">
<path d="M62.152 0.0319996V1.952C60.936 2.208 59.624 2.944 58.216 4.16C56.872 5.376 55.656 7.424 54.568 10.304L32.008 68.48C31.88 68.48 31.752 68.48 31.624 68.48C31.496 68.48 31.368 68.48 31.24 68.48C31.112 68.48 30.984 68.48 30.856 68.48C30.728 68.48 30.6 68.48 30.472 68.48L7.048 8.096C6.088 5.664 5 4.064 3.784 3.296C2.568 2.464 1.448 2.016 0.424 1.952V0.0319996C1.704 0.0959988 3.272 0.159998 5.128 0.223997C7.048 0.287996 8.904 0.319996 10.696 0.319996C13.192 0.319996 15.528 0.287996 17.704 0.223997C19.88 0.159998 21.64 0.0959988 22.984 0.0319996V1.952C20.808 2.016 19.144 2.272 17.992 2.72C16.904 3.168 16.296 3.968 16.168 5.12C16.104 6.208 16.488 7.84 17.32 10.016L35.176 57.344L33.64 58.976L50.344 15.584C51.688 12.128 52.328 9.44 52.264 7.51999C52.2 5.536 51.464 4.128 50.056 3.296C48.648 2.464 46.6 2.016 43.912 1.952V0.0319996C45.768 0.0959988 47.656 0.159998 49.576 0.223997C51.496 0.287996 53.288 0.319996 54.952 0.319996C56.616 0.319996 57.992 0.287996 59.08 0.223997C60.168 0.159998 61.192 0.0959988 62.152 0.0319996ZM65.5008 0.0319996C66.8448 0.0959988 68.6048 0.159998 70.7808 0.223997C72.9568 0.287996 75.1008 0.319996 77.2128 0.319996C80.2208 0.319996 83.1008 0.287996 85.8528 0.223997C88.6048 0.159998 90.5568 0.127998 91.7088 0.127998C99.4528 0.127998 105.245 1.888 109.085 5.408C112.925 8.928 114.845 13.472 114.845 19.04C114.845 21.344 114.461 23.776 113.693 26.336C112.925 28.832 111.581 31.168 109.661 33.344C107.805 35.456 105.245 37.184 101.981 38.528C98.7168 39.872 94.5888 40.544 89.5968 40.544H80.3808V38.624H88.6368C93.1808 38.624 96.6368 37.76 99.0048 36.032C101.437 34.304 103.069 32.032 103.901 29.216C104.797 26.4 105.245 23.36 105.245 20.096C105.245 14.016 104.029 9.472 101.597 6.464C99.2288 3.456 95.1328 1.952 89.3088 1.952C86.3648 1.952 84.4448 2.496 83.5488 3.584C82.6528 4.672 82.2048 6.88 82.2048 10.208V57.824C82.2048 60.128 82.4288 61.856 82.8768 63.008C83.3888 64.16 84.3488 64.928 85.7568 65.312C87.1648 65.696 89.2128 65.952 91.9008 66.08V68C90.2368 67.872 88.1248 67.808 85.5648 67.808C83.0048 67.744 80.4128 67.712 77.7888 67.712C75.2928 67.712 72.9568 67.744 70.7808 67.808C68.6048 67.808 66.8448 67.872 65.5008 68V66.08C67.6768 65.952 69.3088 65.696 70.3968 65.312C71.5488 64.928 72.3168 64.16 72.7008 63.008C73.0848 61.856 73.2768 60.128 73.2768 57.824V10.208C73.2768 7.83999 73.0848 6.112 72.7008 5.024C72.3168 3.872 71.5488 3.104 70.3968 2.72C69.3088 2.272 67.6768 2.016 65.5008 1.952V0.0319996Z" fill="black"/>
</svg>
